<svg id="Слой_1" data-name="Слой 1" xmlns="http://www.w3.org/2000/svg" viewBox="0 0 1578.43 676.5"><defs><style>.cls-1,.cls-3,.cls-4{fill:#fff;}.cls-1,.cls-2{stroke:#fff;stroke-miterlimit:10;}.cls-2{fill:none;stroke-linecap:round;stroke-width:12px;}.cls-4{font-size:260px;font-family:BebasNeueCyrillic, Bebas Neue Cyrillic;}</style></defs><title>logo</title><path class="cls-1" d="M473.56,682.71c-16.75,12.59-37.4,4.71-50.23-4.22s-62-40.74-68.66-31.81c-25.67,32.93-54.14,0-54.14,0s-22.32-8.37-58.6,30.14c-43.85,46.55-66.42,44.65-66.42,44.65,3.35,11.72,31.26,13.4,31.26,13.4,19,131.16,122.79,142.88,122.79,142.88,132.28-21.21,122.23-168.56,122.23-168.56C478.58,699.7,473.56,682.71,473.56,682.71ZM277.37,712s46.89-45.76,107.44-1.67C384.81,710.31,328.16,751.05,277.37,712Z" transform="translate(-104.33 -201.75)"/><path class="cls-2" d="M148.16,687,183.74,556.4s7.12-17.58,21.35-11.3" transform="translate(-104.33 -201.75)"/><path class="cls-2" d="M295.87,532.93s30.53-56,62.76-1.19" transform="translate(-104.33 -201.75)"/><ellipse class="cls-2" cx="147.22" cy="341.99" rx="46.47" ry="35.82"/><ellipse class="cls-2" cx="298.09" cy="341.99" rx="46.47" ry="35.82"/><path class="cls-3" d="M290.07,473.52a3.05,3.05,0,0,1-.94,1.52,5.68,5.68,0,0,1-.68.62,6.46,6.46,0,0,1-.75.54,17,17,0,0,1-3.26,1.6,34.33,34.33,0,0,1-6.91,1.69c-1.16.17-2.32.32-3.48.41s-2.32.17-3.47.21-2.32.06-3.5,0-2.34-.06-3.47-.15c-9.1-.63-17.56-2-25.82-2.35a82.78,82.78,0,0,0-12.12.17c-2,.14-3.92.5-5.87.82-1,.23-1.94.39-2.87.67s-1.92.49-2.85.82a49.1,49.1,0,0,0-11,5.14,89.65,89.65,0,0,0-10.52,7.92,37.29,37.29,0,0,1,6.57-12.3,39,39,0,0,1,11.09-9.35,44,44,0,0,1,13.83-5,59.3,59.3,0,0,1,7.22-.89,68,68,0,0,1,7.14,0c9.46.45,18.38,2.79,26.72,5.06l3.1.82c1,.27,2,.49,3.09.75l1.58.37,1.56.33c1.06.25,2.1.43,3.15.64a59.48,59.48,0,0,0,6.33.89,22.21,22.21,0,0,0,3.16,0A5.06,5.06,0,0,0,290.07,473.52Z" transform="translate(-104.33 -201.75)"/><path class="cls-3" d="M364.35,473.52a5,5,0,0,0,3,1,22.22,22.22,0,0,0,3.16,0,58.77,58.77,0,0,0,6.33-.89c1.06-.21,2.1-.39,3.15-.64l1.57-.33,1.57-.37c1.06-.26,2.1-.48,3.1-.75l3.1-.82c8.34-2.27,17.26-4.61,26.71-5.06a68.22,68.22,0,0,1,7.15,0,59.14,59.14,0,0,1,7.21.89,43.93,43.93,0,0,1,13.84,5,39.08,39.08,0,0,1,11.09,9.35,37.08,37.08,0,0,1,6.56,12.3,88,88,0,0,0-10.52-7.92,49,49,0,0,0-11-5.14c-.93-.33-1.9-.57-2.85-.82s-1.92-.44-2.87-.67c-1.95-.32-3.88-.68-5.87-.82a82.8,82.8,0,0,0-12.12-.17c-8.26.36-16.72,1.72-25.82,2.35-1.13.09-2.3.11-3.47.15s-2.35,0-3.5,0-2.31-.09-3.47-.21-2.33-.24-3.49-.41a34.41,34.41,0,0,1-6.9-1.69,17.07,17.07,0,0,1-3.27-1.6,7.33,7.33,0,0,1-.74-.54,5.68,5.68,0,0,1-.68-.62A3.05,3.05,0,0,1,364.35,473.52Z" transform="translate(-104.33 -201.75)"/><path class="cls-1" d="M137,539.52s34.05-44.1,38.51-123.91,70.89-72.56,70.89-72.56-10.61,40.75-33.49,43.54c0,0,34,19.19,72-43.71,11-14.9,125-33.87,181.39,33.66,0,2.79,10.05,22.33,17.3,72.56s27.91,97.2,33.49,94.64,55.26-63.94,15.63-162.18c-6.7-18.41-11.16-23.44-11.16-46.88S516.64,227.52,358.63,203c-26.28-2.79-58.93,1.67-68.56,31.26-3.07,7-19.33-8.8-19.33-8.8s-36.34-25.25-89.93,23.31c-36.55,27.35-39.9,58.32-39.9,58.32s-31.54,38.79-24.28,89.58C115.54,405.28,80.35,468.35,137,539.52Z" transform="translate(-104.33 -201.75)"/><text class="cls-4" transform="translate(578.81 420.19)">Чехов жив</text></svg>